<?xml version="1.0" encoding="utf-8" ?>
<svg xmlns="http://www.w3.org/2000/svg" xmlns:xlink="http://www.w3.org/1999/xlink" width="1024" height="1024">
	<path fill="#EDF2F4" d="M0 0L1024 0L1024 1024L0 1024L0 0Z"/>
	<path fill="#2B2D42" d="M61.1993 631.671C56.1356 594.759 50.2756 557.901 44.7823 521.049L40.2242 490.591C39.2549 484.174 37.9834 477.571 37.6317 471.091C37.4837 468.362 37.9603 465.759 39.1543 463.286C40.8639 459.746 43.8741 457.245 47.3066 455.458C54.751 451.582 62.9383 448.569 70.6324 445.174L128.284 419.94Q232.979 373.238 338.603 328.676L431.069 289.186L464.208 275.116C470.332 272.497 476.626 269.162 482.977 267.232C490.06 265.08 506.611 268.455 513.197 271.974C515.557 279.229 516.36 287.618 517.684 295.129C521.298 315.622 524.216 336.223 527.72 356.732L556.414 527.011C560.802 552.849 564.45 578.929 569.647 604.604C588.392 595.672 606.187 583.483 617.89 566.012C626.654 552.927 633.988 539.933 645.228 528.598C667.099 506.54 702.495 494.182 733.08 494.108Q739.981 456.859 748.708 419.994C749.062 412.939 753.679 393.899 756.285 386.974C759.021 379.971 765.039 373.488 771.947 370.404C774.015 369.48 776.489 368.712 778.779 368.815C787.785 369.221 812.672 379.964 821.869 383.671C828.242 386.239 834.438 389.244 840.806 391.835C857.671 398.697 874.635 405.19 891.402 412.312C901.407 416.562 913.597 420.583 922.573 426.732C927.022 429.78 930.398 434.183 932.54 439.104C934.274 443.089 934.497 448.173 934.171 452.47C933.167 465.705 929.747 479.526 927.248 492.578L912.442 569.204C921.769 578.56 928.675 590 935.449 601.249C967.796 654.955 987.696 723.63 987.537 786.521C987.507 798.368 985.836 819.707 983.19 831.137C982.563 836.863 982.086 842.885 977.168 846.721C975.553 847.98 973.478 848.789 971.619 849.627C958.143 881.62 930.492 906.938 902.27 925.982C893.053 932.202 883.166 937.25 873.272 942.285C852.576 952.817 831.68 961.919 809.896 969.996C785.728 978.957 755.15 988.543 729.619 989.947C701.761 991.479 675.792 983.804 649.321 976.317Q619.845 967.904 590.506 959.023C554.152 948.188 523.019 939.348 484.497 938.802C456.858 938.409 429.308 943.091 402.097 947.413C346.593 956.23 295.256 963.483 239.351 952.478Q236.335 951.869 233.334 951.186Q230.333 950.503 227.35 949.747Q224.368 948.99 221.404 948.161Q218.44 947.333 215.498 946.431Q212.556 945.53 209.636 944.557Q206.717 943.584 203.822 942.54Q200.927 941.496 198.059 940.382Q195.19 939.267 192.35 938.083Q189.51 936.899 186.699 935.645Q183.889 934.391 181.11 933.07Q178.331 931.748 175.585 930.358Q172.84 928.969 170.129 927.512Q167.418 926.056 164.743 924.534Q162.069 923.012 159.433 921.424Q156.796 919.837 154.199 918.186Q151.603 916.535 149.047 914.821Q146.491 913.106 143.978 911.33Q141.465 909.554 138.997 907.717Q136.528 905.879 134.105 903.982Q131.682 902.085 129.306 900.129Q126.93 898.174 124.603 896.16Q122.276 894.147 119.998 892.077Q117.721 890.008 115.495 887.883Q113.269 885.758 111.096 883.579Q108.922 881.401 106.803 879.17Q104.684 876.939 102.619 874.656Q100.555 872.374 98.5476 870.042Q96.5399 867.71 94.5898 865.329Q92.6398 862.948 90.7486 860.521Q88.8573 858.093 87.0261 855.62Q85.1948 853.147 83.4247 850.63Q81.6545 848.113 79.9464 845.553C74.4285 837.261 69.9243 828.696 65.445 819.819C62.8916 814.759 60.0683 809.713 57.8558 804.496C40.925 764.574 34.1427 717.666 44.5985 675.254C46.4403 667.783 48.6378 660.177 51.6689 653.104C54.3984 646.736 59.9666 639.45 61.0666 632.672C61.1205 632.34 61.155 632.005 61.1993 631.671Z"/>
	<path fill="#2B2D42" d="M61.1993 631.671C56.1356 594.759 50.2756 557.901 44.7823 521.049L40.2242 490.591C39.2549 484.174 37.9834 477.571 37.6317 471.091C37.4837 468.362 37.9603 465.759 39.1543 463.286C40.8639 459.746 43.8741 457.245 47.3066 455.458C54.751 451.582 62.9383 448.569 70.6324 445.174L128.284 419.94Q232.979 373.238 338.603 328.676L431.069 289.186L464.208 275.116C470.332 272.497 476.626 269.162 482.977 267.232C490.06 265.08 506.611 268.455 513.197 271.974C515.557 279.229 516.36 287.618 517.684 295.129C521.298 315.622 524.216 336.223 527.72 356.732L556.414 527.011C560.802 552.849 564.45 578.929 569.647 604.604C570.387 609.248 572.685 617.368 569.663 621.449C568.238 623.374 564.735 624.791 562.586 625.806C548.688 632.368 534.117 637.889 519.985 643.973L398.788 695.287C401.551 710.414 403.685 725.672 406.375 740.824C407.154 745.213 407.555 749.821 408.623 754.141C415.765 755.842 451.641 766.546 454.908 770.847C456.053 772.354 455.914 775.6 455.338 777.324C454.017 781.282 449.8 783.127 446.285 784.734L411.394 800.44C402.79 804.352 387.65 812.865 378.953 814.011C368.17 815.432 355.763 811.803 345.779 808.066C336.031 804.417 320.493 798.183 315.68 788.066C313.137 782.722 314.438 740.903 314.113 731.074C270.831 748.176 228.007 766.655 185.059 784.59L145.14 800.994C135.105 805.076 125.104 809.328 114.77 812.605C106.618 811.08 92.9968 811.221 87.9829 803.665C86.449 801.354 85.7153 797.729 85.1854 795.024C83.4329 786.075 82.4891 776.858 81.1838 767.83L73.7939 716.379C69.8197 688.133 64.8346 659.971 61.1993 631.671Z"/>
	<path fill="#EDF2F4" d="M496.966 297.533C499.244 300.006 545.423 581.325 550.268 608.727C543.554 610.871 536.991 614.287 530.492 617.054L491.856 633.479L385.497 678.272L214.471 749.34C187.1 760.704 159.045 770.993 132.216 783.565L130.406 784.184C129.235 783.238 129.366 781.947 129.103 780.491C127.344 770.746 126.326 760.872 124.765 751.094L111.535 668.217Q96.2335 573.582 79.7147 479.152C98.6565 470.363 118.208 462.657 137.423 454.474L211.744 422.081L496.966 297.533Z"/>
	<path fill="#2B2D42" d="M284.931 432.544C285.369 432.956 285.611 433.274 285.757 433.868C288.056 443.248 289.549 452.914 291.626 462.358L307.226 533.412C311.583 554.127 316.847 574.652 320.601 595.497C314.416 598.524 307.738 600.739 301.394 603.446Q275.276 614.717 248.895 625.359L134.983 672.75C133.511 673.132 132.828 673.564 131.389 672.994C130.595 671.856 130.121 670.789 129.802 669.431C128.962 665.859 128.793 662.045 128.043 658.41Q122.851 633.649 118.116 608.797C111.947 576.929 105.287 545.172 99.4735 513.231C106.492 509.318 114.62 506.445 122.047 503.275C137.541 496.659 153.105 490.172 168.516 483.365C186.521 475.414 204.814 467.975 222.7 459.791C243.061 450.476 263.782 439.941 284.931 432.544Z"/>
	<path fill="#EDF2F4" d="M277.177 448.96L277.689 449.167C280.013 453.573 283.113 474.108 284.543 480.503L307.433 587.584C292.359 594.667 276.45 600.034 261.142 606.608Q202.232 632.576 142.684 657.045L141.01 657.524C139.921 656.651 139.673 655.923 139.275 654.596C138.336 651.464 138.066 648.225 137.374 645.047C134.039 629.735 130.924 614.47 127.855 599.095C122.763 573.578 116.804 548.323 112.575 522.616C167.596 498.436 221.995 472.731 277.177 448.96Z"/>
	<path fill="#2B2D42" d="M268.091 502.959L268.603 503.127C269.042 503.67 269.311 504.122 269.459 504.813C271.984 516.605 274.003 528.557 276.377 540.39C278.981 553.37 281.948 566.31 284.33 579.328C272.371 585.426 257.871 590.688 245.285 595.844C229.209 602.43 213.375 609.556 197.337 616.221C180.749 623.114 163.929 629.486 147.885 637.6C147.749 637.547 147.597 637.526 147.479 637.442C146.348 636.644 146.258 636.283 146.081 635.013C146.678 633.775 147.423 633.257 148.605 632.64C154.819 629.401 161.533 626.852 167.983 624.125L201.368 610.119C217.228 603.502 232.79 595.89 248.949 590.058C247.06 578.511 244.029 566.994 241.714 555.511C239.14 542.739 237.237 529.797 234.436 517.078Q251.194 509.852 268.091 502.959Z"/>
	<path fill="#EDF2F4" d="M265.569 508.039C266.966 509.613 278.642 569.419 279.988 576.808C271.053 580.881 261.858 584.327 252.958 588.506C252.845 588.431 252.714 588.379 252.619 588.282C250.335 585.947 239.738 526.31 238.447 519.593C247.622 516.201 256.609 511.966 265.569 508.039Z"/>
	<path fill="#2B2D42" d="M220.316 541.108C220.346 541.13 220.377 541.15 220.406 541.174C221.452 542.038 221.679 542.944 222.021 544.2C224.067 551.728 225.066 559.827 226.702 567.485C228.346 575.175 230.886 583.042 231.762 590.827C222.335 595.527 212.086 599.206 202.269 603.055L201.632 602.933C200.399 601.446 191.757 557.232 191.256 552.049C200.824 548.883 210.423 542.84 220.316 541.108Z"/>
	<path fill="#2B2D42" d="M217.675 488.133C219.13 488.212 221.432 488.223 222.634 489.111C224.562 490.536 224.571 493.81 224.8 495.979L224.619 494.143C220.375 499.023 216.88 504.991 213.269 510.369C208.205 517.912 202.972 525.389 198.074 533.038C194.667 538.357 191.827 544.603 187.15 548.907C180.031 548.217 172.978 546.308 166.019 544.72C159.791 555.057 152.257 565.045 145.011 574.701C144.962 574.732 144.916 574.768 144.865 574.794C143.686 575.383 141.883 575.179 140.692 574.637C139.438 574.066 139.285 573.563 138.743 572.399C138.546 567.504 158.844 539.962 162.619 534.307C169.723 535.073 176.953 537.085 184.045 538.275C192.644 526.888 200.506 514.177 208.106 502.064C210.578 498.126 212.756 493.877 215.436 490.086C216.093 489.157 216.618 488.627 217.675 488.133Z"/>
	<path fill="#0A195D" d="M175.705 573.949L176.575 574.386C179.082 579.356 181.765 597.875 183.119 604.498C173.775 609.704 162.772 613.1 152.847 617.146C149.556 611.692 146.202 593.651 144.704 586.705C152.992 582.116 166.611 577.641 175.705 573.949Z"/>
	<path fill="#EDF2F4" d="M173.994 578.573C175.438 580.261 178.211 598.955 178.789 602.554C175.262 604.22 157.381 612.024 154.884 611.663C153.086 604.14 151.168 596.717 148.48 589.454Q161.291 584.141 173.994 578.573Z"/>
	<path fill="#0A195D" d="M264.386 464.54L264.778 464.619C266.794 466.355 273.882 492.861 275.049 497.413C268.358 494.481 262.196 490.912 256.284 486.631C252.571 494.098 249.784 501.965 245.863 509.344L236.537 502.722C240.139 496.112 243.594 489.032 246.338 482.022C242.178 479.764 237.732 478.307 234.334 474.864C244.989 472.634 254.158 467.978 264.386 464.54Z"/>
	<path fill="#2B2D42" d="M397.367 399.959Q426.911 404.602 456.613 408.097C467.166 409.388 481.166 409.992 491.085 413.058C482.342 423.467 472.26 432.533 462.799 442.226C448.941 456.424 435.462 471.122 422.03 485.727C400.817 484.672 379.436 484.963 358.192 484.416C361.626 480.767 364.699 476.929 367.75 472.965C371.454 468.25 394.133 441.66 394.721 438.08L394.046 437.63C393.818 437.698 393.588 437.757 393.362 437.832C391.795 438.356 390.297 439.676 389.145 440.822C384.664 445.281 380.832 450.914 376.815 455.837C369.866 464.355 359.804 474.586 354.822 484.2L326.429 484.039C335.093 471.937 346.335 460.551 356.112 449.258C370.145 433.048 383.668 416.448 397.367 399.959Z"/>
	<path fill="#2B2D42" d="M426.563 529.426C444.413 532.864 457.512 534.306 475.34 529.452C476.353 535.205 476.48 541.662 476.318 547.485Q476.175 552.317 475.752 557.133Q475.328 561.949 474.626 566.732Q473.924 571.515 472.946 576.25Q471.967 580.984 470.715 585.653Q469.464 590.323 467.943 594.912Q466.423 599.501 464.638 603.994Q462.854 608.487 460.812 612.869Q458.77 617.251 456.477 621.507C452.956 627.912 449.087 634.287 443.743 639.34C441.121 638.94 438.544 638.26 435.964 637.65C430.348 635.43 425.107 633.394 420.012 630.073C399.77 616.88 384.996 590.89 380.111 567.531C386.384 561.595 394.977 557.516 402.029 552.467C411.417 545.745 418.677 537.694 426.563 529.426Z"/>
	<path fill="#EDF2F4" d="M427.861 534.82C442.172 538.765 456.241 538.962 470.735 536.086Q470.867 537.538 470.919 538.996C471.923 566.051 464.503 596.352 451.349 620.003C448.84 624.514 446.199 629.21 442.678 633.012C439.477 632.426 436.569 631.643 433.509 630.534C430.652 629.34 427.821 627.88 425.156 626.303C405.218 614.503 391.384 590.584 385.843 568.594C401.638 559.357 415.852 548.76 427.861 534.82Z"/>
	<path fill="#2B2D42" d="M428.313 538.168C443.105 541.289 453.466 542.2 468.448 539.107C469.717 549.462 467.754 561.065 465.745 571.297Q464.491 577.807 462.731 584.198Q460.97 590.59 458.714 596.823Q456.459 603.057 453.721 609.095Q450.984 615.133 447.782 620.938C446.672 622.966 444.216 628.004 442.028 628.927C440.068 629.753 435.657 627.849 433.687 627.215Q432.474 626.701 431.289 626.125C408.529 615.227 396.344 593.051 388.259 570.08C399.37 564.077 409.545 557.108 418.658 548.29C421.907 545.145 424.656 541.477 428.002 538.445L428.313 538.168Z"/>
	<path fill="#EDF2F4" d="M429.349 543.386C441.151 546.778 451.493 546.88 463.58 545.272C463.234 571.468 454.769 602.015 440.007 623.742C437.385 622.825 434.936 621.658 432.437 620.455C412.541 610.754 402.091 592.217 394.018 572.549C407.522 564.248 418.821 555.35 429.349 543.386Z"/>
	<path fill="#67439D" d="M443.35 556.482C445.558 556.424 448.174 556.2 450.24 557.095C451.439 557.615 451.811 558.122 452.33 559.275C451.794 564.666 442.183 593.795 439.481 598.8C439.09 599.525 437.99 601.499 437.175 601.636C433.111 602.319 422.951 592.588 419.104 590.378L418.363 589.958C415.334 588.051 411.621 586.246 410.669 582.476C410.27 580.895 410.598 579.457 411.511 578.108C412.552 576.569 414.625 575.642 416.406 575.385C421.621 574.633 429.766 583.607 433.678 586.7C437.241 576.749 439.747 566.433 443.35 556.482Z"/>
	<path fill="#2B2D42" d="M464.395 445.412C465.212 446.578 474.127 504.343 474.603 509.999C459.139 515.932 442.368 518.541 426.981 524.463C411.556 530.4 396.395 540.116 381.419 547.46C380.448 546.49 380.309 545.41 379.931 544.123C374.604 526.104 372.35 507.258 367.53 489.095Q395.857 488.767 424.155 490.098C431.438 482.421 438.294 474.231 445.334 466.325C451.608 459.278 458.132 452.463 464.395 445.412Z"/>
	<path fill="#8D99AE" d="M232.287 659.538C234.712 659.477 236.862 659.465 239.114 660.475C244.003 662.668 247.274 667.175 249.015 672.124C251.005 677.779 250.644 683.709 247.963 689.075C245.457 694.091 241.494 697.705 236.187 699.507C232.704 699.794 229.787 699.81 226.539 698.302C222.222 696.297 219.134 692.48 217.697 687.978C215.838 682.148 216.65 675.079 219.478 669.691C222.342 664.237 226.546 661.297 232.287 659.538Z"/>
	<path fill="#0A195D" d="M165.168 687.56C167.928 687.259 170.635 687.406 173.256 688.387C177.717 690.056 180.975 693.402 182.771 697.792C185.065 703.395 184.891 710.271 182.523 715.821C180.083 721.544 176.051 724.545 170.433 726.707C167.557 726.803 164.941 726.664 162.229 725.606C157.958 723.939 154.833 720.616 153.012 716.45Q152.793 715.948 152.598 715.435Q152.404 714.923 152.235 714.401Q152.066 713.88 151.922 713.35Q151.779 712.821 151.662 712.286Q151.545 711.75 151.455 711.209Q151.364 710.669 151.3 710.124Q151.236 709.58 151.199 709.033Q151.163 708.486 151.152 707.938Q151.142 707.39 151.159 706.842Q151.176 706.294 151.22 705.747Q151.264 705.201 151.335 704.657Q151.405 704.114 151.503 703.574Q151.6 703.035 151.724 702.5Q151.847 701.966 151.997 701.439Q152.147 700.912 152.323 700.392Q152.498 699.873 152.699 699.363C155.123 693.329 159.353 689.977 165.168 687.56Z"/>
	<path fill="#0A195D" d="M297.197 634.608C300.223 634.391 302.775 634.36 305.627 635.585C310.141 637.525 313.244 641.448 314.896 645.995C316.941 651.621 316.669 657.579 314.09 662.98C311.611 668.171 308.096 671.06 302.767 672.977C299.779 673.735 296.703 673.481 293.833 672.344C289.751 670.728 287.023 667.268 285.422 663.28Q285.196 662.73 284.999 662.169Q284.802 661.609 284.634 661.039Q284.466 660.468 284.328 659.89Q284.189 659.312 284.081 658.728Q283.973 658.143 283.894 657.554Q283.816 656.965 283.768 656.373Q283.721 655.78 283.703 655.186Q283.686 654.592 283.699 653.998Q283.713 653.403 283.757 652.811Q283.801 652.218 283.875 651.628Q283.95 651.038 284.054 650.453Q284.159 649.868 284.294 649.289Q284.428 648.71 284.592 648.139Q284.757 647.568 284.95 647.006Q285.144 646.444 285.366 645.893Q285.588 645.341 285.838 644.802C288.323 639.392 291.74 636.535 297.197 634.608Z"/>
	<path fill="#2B2D42" d="M329.149 671.413C330.001 671.478 329.933 671.627 330.512 672.199C330.762 673.515 330.817 673.686 330.315 674.913C324.694 678.582 315.7 681.28 309.328 683.882L267.02 701.332L203.401 727.735C183.825 736.059 164.145 744.861 144.118 752.012C143.963 751.953 143.791 751.928 143.653 751.836C142.641 751.157 142.405 750.893 142.272 749.708C143.133 748.521 144.174 748.112 145.475 747.529C153.496 743.929 162.015 740.988 170.159 737.607L228.211 713.467L329.149 671.413Z"/>
	<path fill="#8D99AE" d="M355.986 498.795C356.658 498.97 356.556 498.876 357.172 499.378C360.304 501.93 360.329 506.318 360.649 510.013C362.458 510.374 364.894 510.675 366.388 511.76C367.097 512.274 367.025 513.03 367.201 513.832C366.539 515.725 365.318 516.028 364.217 517.597C364.525 520.611 365.138 523.577 365.746 526.542C367.01 532.712 366.472 529.768 369.382 531.692C369.553 532.21 369.77 532.757 369.782 533.312C369.807 534.399 369.252 535.378 368.627 536.216C368.424 536.489 368.211 536.755 368.003 537.024C368.79 538.344 370.679 539.182 371.994 539.967L367.65 544.988C367.563 546.679 367.494 548.111 366.883 549.701L366.022 550.058L364.916 549.241L363.905 546.76C363.016 546.229 362.527 546.212 361.531 546.281C360.599 546.346 359.854 546.345 358.924 546.174C356.728 543.098 359.232 541.953 358.859 538.805C358.247 538.891 357.602 539.008 356.98 539.017C355.589 539.036 355.125 538.914 354.105 537.983L354.101 536.853C355.22 535.383 357.15 534.613 358.765 533.764C357.974 530.06 357.346 523.166 355.242 520.227C353.812 520.447 352.389 520.867 351.017 520.255C350.738 519.752 350.655 519.668 350.506 519.032C350.196 517.709 350.503 516.349 351.167 515.206C352.111 514.556 353.493 513.748 354.079 512.744C355.812 509.775 353.779 504.863 352.96 501.863L355.986 498.795Z"/>
	<path fill="#67439D" d="M486.004 271.059C490.675 270.795 495.701 271.727 500.351 272.233C492.818 276.465 484.434 279.7 476.523 283.175L425.071 305.261L180.227 412.834L111.431 443.219C99.0989 448.65 86.5177 453.629 74.4788 459.696C70.9067 461.496 67.738 463.181 65.246 466.432C62.1855 470.424 61.236 474.241 61.4444 479.199C61.8808 489.58 64.6543 500.444 66.4294 510.721L76.5695 570.579L101.572 724.951C106.024 752.678 111.033 780.304 114.804 808.136C112.735 807.143 110.641 806.055 108.748 804.75C105.642 802.608 104.453 800.265 103.566 796.709C101.447 788.217 100.641 779.152 99.3667 770.488Q95.894 746.107 91.8914 721.807C86.2301 688.22 81.7611 654.541 76.5985 620.888L53.327 473.483C53.1602 472.027 53.1234 470.151 52.5481 468.801C52.1393 467.842 51.8705 467.793 50.9699 467.456C49.856 468.176 49.4624 468.565 49.1074 469.878C48.5035 472.111 48.7276 474.708 49.0534 476.969C51.136 491.422 54.0331 505.745 56.3549 520.158L72.5065 623.978L89.2046 733.304C92.2844 753.802 94.6342 774.633 98.4194 794.99C99.1783 799.072 100.289 802.421 102.179 806.119C100.299 805.501 98.2988 804.913 96.5014 804.078C93.926 802.882 91.7515 801.075 90.7454 798.356C88.8777 793.31 88.7879 786.416 87.9445 781.069C84.7678 760.929 82.1925 740.715 79.1161 720.568L57.0941 571.422L48.0925 511.586C46.2602 499.726 44.0784 487.834 42.5562 475.935C42.0983 472.356 41.8154 468.497 43.4438 465.151C44.9572 462.042 47.6551 460.436 50.6443 458.953C56.8066 455.895 63.4255 453.458 69.7589 450.752Q87.1497 443.322 104.384 435.536Q205.546 389.939 307.784 346.808L432.709 293.222C450.395 285.788 467.928 277.463 486.004 271.059Z"/>
	<path fill="#EDF2F4" d="M394.383 697.011C395.723 699.232 403.363 748.962 403.637 754.228Q369.069 768.961 334.129 782.788C333.162 783.239 331.772 783.979 330.725 784.108C330.131 784.182 329.412 784.141 328.986 783.667C326.54 780.944 327.778 733.582 327.848 725.863C350.043 716.401 372.496 707.156 394.383 697.011Z"/>
	<path fill="#EDF2F4" d="M406.444 758.503C420.157 762.129 433.745 767.182 447.322 771.39C431.279 778.029 387.765 801.168 373.927 801.527C361.854 801.578 342.375 794.675 332.531 787.828L381.611 768.761C389.928 765.467 398.356 762.336 406.444 758.503Z"/>
	<path fill="#EDF2F4" d="M319.811 728.595C320.702 728.969 320.768 728.811 321.207 729.733C322.857 733.196 320.388 773.873 321.608 782.281C321.97 784.776 323.898 787.44 325.067 789.677C323.786 788.6 322.473 787.287 321.507 785.921C320.412 784.374 319.859 782.713 319.65 780.839C318.642 771.791 319.438 761.898 319.453 752.77C319.466 745.061 318.643 736.173 319.811 728.595Z"/>
	<path fill="#8D99AE" d="M569.647 604.604C588.392 595.672 606.187 583.483 617.89 566.012C626.654 552.927 633.988 539.933 645.228 528.598C667.099 506.54 702.495 494.182 733.08 494.108Q729.001 514.393 724.575 534.606C723.098 541.665 721.968 548.827 720.247 555.827C711.156 596.243 703.798 637.002 695.114 677.494L685.6 725.938C684.003 734.044 682.669 742.162 680.696 750.192C661.328 760.6 640.517 768.983 620.453 777.989L501.079 831.134Q486.548 837.659 471.817 843.716C466.406 845.97 460.494 847.911 455.411 850.827C451.43 853.11 448.529 855.717 447.147 860.247C446.374 862.779 446.284 865.79 447.534 868.194C448.878 870.78 451.398 873.176 454.027 874.425C463.304 878.831 473.918 881.687 483.644 885.132L546.181 907.277Q595.096 925.384 644.399 942.407C661.054 948.344 678.138 955.598 695.13 960.188C703.695 962.501 713.523 962.383 722.058 959.977C730.1 957.709 737.874 953.792 745.466 950.338L778.453 935.377L912.691 875.179L944.519 861.128C953.442 857.143 962.393 852.859 971.619 849.627C958.143 881.62 930.492 906.938 902.27 925.982C893.053 932.202 883.166 937.25 873.272 942.285C852.576 952.817 831.68 961.919 809.896 969.996C785.728 978.957 755.15 988.543 729.619 989.947C701.761 991.479 675.792 983.804 649.321 976.317Q619.845 967.904 590.506 959.023C554.152 948.188 523.019 939.348 484.497 938.802C456.858 938.409 429.308 943.091 402.097 947.413C346.593 956.23 295.256 963.483 239.351 952.478Q236.335 951.869 233.334 951.186Q230.333 950.503 227.35 949.747Q224.368 948.99 221.404 948.161Q218.44 947.333 215.498 946.431Q212.556 945.53 209.636 944.557Q206.717 943.584 203.822 942.54Q200.927 941.496 198.059 940.382Q195.19 939.267 192.35 938.083Q189.51 936.899 186.699 935.645Q183.889 934.391 181.11 933.07Q178.331 931.748 175.585 930.358Q172.84 928.969 170.129 927.512Q167.418 926.056 164.743 924.534Q162.069 923.012 159.433 921.424Q156.796 919.837 154.199 918.186Q151.603 916.535 149.047 914.821Q146.491 913.106 143.978 911.33Q141.465 909.554 138.997 907.717Q136.528 905.879 134.105 903.982Q131.682 902.085 129.306 900.129Q126.93 898.174 124.603 896.16Q122.276 894.147 119.998 892.077Q117.721 890.008 115.495 887.883Q113.269 885.758 111.096 883.579Q108.922 881.401 106.803 879.17Q104.684 876.939 102.619 874.656Q100.555 872.374 98.5476 870.042Q96.5399 867.71 94.5898 865.329Q92.6398 862.948 90.7486 860.521Q88.8573 858.093 87.0261 855.62Q85.1948 853.147 83.4247 850.63Q81.6545 848.113 79.9464 845.553C74.4285 837.261 69.9243 828.696 65.445 819.819C62.8916 814.759 60.0683 809.713 57.8558 804.496C40.925 764.574 34.1427 717.666 44.5985 675.254C46.4403 667.783 48.6378 660.177 51.6689 653.104C54.3984 646.736 59.9666 639.45 61.0666 632.672C61.1205 632.34 61.155 632.005 61.1993 631.671C64.8346 659.971 69.8197 688.133 73.7939 716.379L81.1838 767.83C82.4891 776.858 83.4329 786.075 85.1854 795.024C85.7153 797.729 86.449 801.354 87.9829 803.665C92.9968 811.221 106.618 811.08 114.77 812.605C125.104 809.328 135.105 805.076 145.14 800.994L185.059 784.59C228.007 766.655 270.831 748.176 314.113 731.074C314.438 740.903 313.137 782.722 315.68 788.066C320.493 798.183 336.031 804.417 345.779 808.066C355.763 811.803 368.17 815.432 378.953 814.011C387.65 812.865 402.79 804.352 411.394 800.44L446.285 784.734C449.8 783.127 454.017 781.282 455.338 777.324C455.914 775.6 456.053 772.354 454.908 770.847C451.641 766.546 415.765 755.842 408.623 754.141C407.555 749.821 407.154 745.213 406.375 740.824C403.685 725.672 401.551 710.414 398.788 695.287L519.985 643.973C534.117 637.889 548.688 632.368 562.586 625.806C564.735 624.791 568.238 623.374 569.663 621.449C572.685 617.368 570.387 609.248 569.647 604.604Z"/>
	<path fill="#67439D" d="M229.571 791.32C231.799 795.78 232.097 803.463 232.908 808.447C235.381 823.643 237.892 838.883 239.911 854.146C240.97 862.149 241.448 870.244 242.714 878.213Q243.804 874.288 245.09 870.422Q246.375 866.557 247.854 862.761Q249.333 858.965 251 855.248Q252.668 851.531 254.52 847.903Q256.373 844.275 258.405 840.744Q260.438 837.214 262.646 833.79Q264.853 830.366 267.23 827.058Q269.608 823.75 272.148 820.565C279.309 811.561 287.238 803.128 294.637 794.307C292.88 801.493 290.118 808.661 287.709 815.659C282.481 830.848 277.081 846.447 270.547 861.118C268.287 866.192 265.484 871.029 263.077 876.038C275.333 870.976 287.209 865.139 299.319 859.75L292.682 866.553C281.496 878.273 268.524 892.178 253.284 898.347C247.659 900.624 241.941 901.184 236.271 898.642C215.854 889.487 197.368 831.584 189.619 811.18C193.733 816.533 197.313 822.499 201.033 828.139C210.886 843.079 220.409 858.158 227.85 874.459C227.326 868.232 226.444 862.048 226.028 855.805Q225.278 843.762 225.553 831.699Q225.828 819.635 227.127 807.639C227.727 802.257 228.194 796.559 229.571 791.32Z"/>
	<path fill="#EDF2F4" d="M593.204 680.227C594.892 680.144 597.195 679.809 598.736 680.571C599.882 681.138 600.339 681.704 600.705 682.882C600.611 683.005 600.534 683.143 600.423 683.25C598.645 684.956 593.245 684.782 590.832 685.034C571.648 687.032 555.911 696.555 543.938 711.529C530.888 727.852 529.485 746.763 531.76 766.738C531.763 766.792 531.782 766.848 531.767 766.901C531.477 767.96 531.237 768.233 530.44 768.926C529.436 769.009 529.067 768.798 528.219 768.276C526.584 765.86 526.407 763.633 526.224 760.781C524.865 739.596 529.393 720.204 543.742 704.003C556.703 689.367 573.779 681.501 593.204 680.227Z"/>
	<path fill="#EDF2F4" d="M596.851 700.225C597.78 700.114 598.548 700.173 599.474 700.297L600.06 701.393C599.822 702.975 599.485 703.409 597.905 703.925C594.531 705.025 590.677 705.208 587.184 705.949C578.135 707.868 568.708 713.263 562.373 720.041C550.051 733.222 547.879 748.143 548.496 765.481C547.051 765.569 545.632 765.829 544.296 765.158C543.812 764.014 543.631 763.036 543.522 761.794C542.206 746.692 546.915 731.122 556.785 719.607C567.264 707.381 581.004 701.446 596.851 700.225Z"/>
	<path fill="#EDF2F4" d="M594.181 721.179C595.171 721.079 596.283 720.906 597.274 721.009C598.464 721.132 599.173 721.638 599.879 722.535C598.085 724.984 583.608 725.853 575.751 733.59C567.802 741.418 566.048 750.244 565.963 761.066C565.839 761.831 565.389 762.317 564.964 762.952C564.135 762.924 564.21 763.052 563.603 762.661C562.392 761.882 562.037 760.752 561.822 759.399C560.488 750.992 564.752 741.246 569.829 734.712C575.884 726.919 584.492 722.441 594.181 721.179Z"/>
	<path fill="#EDF2F4" d="M586.453 741.98C587.503 741.911 588.608 741.852 589.656 741.996C591.55 742.255 593.46 743.557 594.546 745.11C595.714 746.779 596.01 748.874 595.627 750.849C595.017 753.999 593.18 755.756 590.578 757.421C589.697 757.478 588.861 757.489 587.978 757.406C585.842 757.206 583.729 755.821 582.51 754.084C581.221 752.247 580.944 749.923 581.468 747.772C582.175 744.87 584.025 743.487 586.453 741.98Z"/>
	<path fill="#8D99AE" d="M912.442 569.204C921.769 578.56 928.675 590 935.449 601.249C967.796 654.955 987.696 723.63 987.537 786.521C987.507 798.368 985.836 819.707 983.19 831.137C981.364 827.071 979.214 824.531 975.309 822.317C967.742 818.028 956.178 815.524 947.765 812.549L901.891 795.895C891.141 791.99 880.024 788.376 869.611 783.661C870.897 775.772 872.781 767.909 874.329 760.061L883.057 715.425Q898.181 642.401 912.442 569.204Z"/>
	<defs>
		<linearGradient id="gradient_0" gradientUnits="userSpaceOnUse" x1="719.51837" y1="559.66162" x2="726.51355" y2="561.11688">
			<stop offset="0" stop-color="#1B1C37"/>
			<stop offset="1" stop-color="#494F65"/>
		</linearGradient>
	</defs>
	<path fill="url(#gradient_0)" d="M756.953 397.131C758.04 393.225 758.638 385.98 762.269 383.926C763.072 383.472 763.55 383.284 764.461 383.071C764.247 383.913 763.9 384.085 763.326 384.724C762.477 385.67 761.907 386.428 761.625 387.677C760.604 392.199 760.138 396.972 759.252 401.549L750.472 445.366L698.752 693.547C695.859 707.204 694.891 721.027 690.934 734.541C691.049 733.079 690.873 731.802 690.648 730.368L690.564 730.788L690.541 729.884L689.207 733.211L688.81 730.118C688.635 726.304 690.032 721.809 690.856 718.076C692.836 709.116 698.677 687.765 696.642 679.056L696.403 679.724L696.054 679.052L695.114 677.494C703.798 637.002 711.156 596.243 720.247 555.827C721.968 548.827 723.098 541.665 724.575 534.606Q729.001 514.393 733.08 494.108Q739.981 456.859 748.708 419.994C748.742 419.981 748.783 419.98 748.81 419.956C750.136 418.805 750.258 415.041 750.641 413.258C751.871 407.523 755.682 403.011 756.953 397.131Z"/>
	<path fill="#2B2D42" d="M720.247 555.827L721.841 557.266L722.567 555.691L722.998 555.862C721.371 571.54 716.643 587.466 713.437 602.912L706.406 637.056C704.104 648.701 700.924 668.739 696.054 679.052L695.114 677.494C703.798 637.002 711.156 596.243 720.247 555.827Z"/>
	<path fill="#B6A5BA" d="M914.626 460.818L915.325 463.458C912.887 476.9 909.932 490.232 907.311 503.637L873.794 670.285L854.575 764.587Q850.306 786.125 845.819 807.618C843.975 816.465 842.336 825.594 839.849 834.277C838.934 837.47 837.537 841.139 834.685 843.095C832.763 844.414 830.363 844.631 828.131 844.089C825.358 843.415 822.455 841.952 819.945 840.628L820.047 839.938C821.814 840.291 823.48 841.705 825.19 841.688C823.927 839.625 820.826 840.088 819.653 837.816C822.535 839.1 825.531 840.654 828.585 841.468C830.538 841.988 833.002 842.207 834.756 840.986C837.383 839.159 838.409 833.417 839.199 830.424C846.372 803.254 850.721 775.122 856.582 747.64Q880.808 631.471 903.642 515.02C907.256 497.044 909.861 478.52 914.626 460.818Z"/>
	<path fill="#67439D" d="M688.538 785.094L689.326 784.428C690.575 785.119 691.799 785.74 693.106 786.312C702.763 790.133 712.924 792.532 722.66 796.244C745.662 805.014 768.265 815.042 790.851 824.833C799.23 828.466 812.436 833.173 819.653 837.816C820.826 840.088 823.927 839.625 825.19 841.688C823.48 841.705 821.814 840.291 820.047 839.938L819.945 840.628C812.247 838.245 804.42 833.804 796.988 830.554C787.128 826.241 777.148 822.205 767.309 817.844C756.398 813.008 745.616 807.825 734.598 803.24C726.545 799.888 718.27 796.873 710.061 793.921C702.896 791.345 694.772 789.587 688.538 785.094Z"/>
	<path fill="#515969" d="M688.81 730.118L689.207 733.211L690.541 729.884L690.564 730.788L690.648 730.368C690.873 731.802 691.049 733.079 690.934 734.541C689.035 745.893 684.945 761.673 686.507 772.886C686.92 775.855 688.576 779.324 690.353 781.751C690.87 782.457 691.418 783.128 691.966 783.81L693.076 785.208L693.106 786.312C691.799 785.74 690.575 785.119 689.326 784.428L688.538 785.094C687.739 784.739 687.36 784.316 686.895 783.598C680.712 774.055 686.336 741.807 688.81 730.118Z"/>
	<path fill="#515969" d="M914.626 460.818C914.86 452.179 915.08 443.856 908.685 436.999C903.639 431.589 893.511 429.023 890.724 426.154C895.933 427.338 909.84 434.726 912.523 439.168C917.708 447.753 916.857 454.114 915.325 463.458L914.626 460.818Z"/>
	<path fill="#EDF2F4" d="M774.162 417.977C775.315 417.91 776.383 417.903 777.509 418.241C782.187 419.645 787.008 422.306 791.546 424.251Q803.333 429.199 815.219 433.902L868.463 455.245C876.437 458.498 885.367 461.41 892.908 465.492C895.116 466.687 897.184 468.954 898.349 471.158C900.056 474.393 900.429 478.28 899.988 481.861C897.95 498.41 893.183 515.077 890.108 531.498Q876.7 602.624 862.031 673.5L844.309 761.708C840.528 780.519 837.445 799.75 831.911 818.147C830.297 817.605 828.703 816.967 827.106 816.376C807.912 807.079 787.809 798.757 768.122 790.551C758.808 786.669 702.972 764.592 699.134 761.135C698.522 758.328 698.765 755.615 699.165 752.799C702.351 730.366 707.851 707.942 712.343 685.738L734.642 576.139L754.589 481.141C758.065 464.637 761.064 447.799 765.307 431.484C767.012 424.932 768.093 421.529 774.162 417.977Z"/>
	<path fill="#67439D" d="M748.279 616.985C749.746 616.951 750.968 617.049 752.387 617.436C757.397 618.801 762.356 621.026 767.213 622.868Q777.611 626.781 788.097 630.451L827.815 644.175C832.826 645.951 839.127 647.539 843.678 650.238C846.851 652.119 848.639 655.397 850.382 658.515C850.38 666.3 848.949 675.665 846.521 683.054C844.995 687.7 843.091 690.862 838.666 693.109C835.924 693.591 833.91 693.557 831.257 692.668C821.008 689.237 811.173 684.438 800.955 680.848Q782.198 674.397 763.56 667.608C757.107 665.29 750.088 663.244 743.96 660.192C741.043 658.739 739.164 657.754 737.768 654.702C734.963 648.568 737.932 629.799 740.605 623.628C742.187 619.974 744.68 618.369 748.279 616.985Z"/>
	<path fill="#EDF2F4" d="M753.765 638.792C757.954 640.519 762.477 641.825 766.751 643.391L806.502 657.706C812.82 660.002 819.427 662.012 825.489 664.927C826.301 666.082 825.985 666.657 825.883 668.007C814.426 665.912 796.989 658.1 785.474 653.894C776.249 650.525 761.843 646.473 753.532 642.054C752.998 640.676 753.366 640.184 753.765 638.792Z"/>
	<path fill="#67439D" d="M760.362 552.517C767.111 553.752 774.033 557.328 780.544 559.624L827.153 576.006C835.561 578.989 846.497 581.381 854.21 585.425C857.296 587.042 860.16 589.549 861.133 593.02C862.727 598.712 859.737 617.359 856.826 622.392C855.129 625.326 852.835 626.641 849.651 627.555C841.426 626.379 833.426 622.794 825.631 620.009L794.427 608.99L770.173 600.567C765.295 598.9 760.109 597.488 755.433 595.321C752.464 593.946 750.329 592.392 749.237 589.221C746.931 582.527 750.122 564.129 753.339 557.861C755.029 554.57 756.89 553.557 760.362 552.517Z"/>
	<path fill="#EDF2F4" d="M765.03 573.711Q790.188 582.919 815.521 591.63C823.709 594.531 832.153 597.181 840.123 600.617C841.013 601.867 840.588 602.46 840.344 603.934C838.169 603.813 769.049 578.995 765.75 577.144C764.923 575.792 765.043 575.264 765.03 573.711Z"/>
	<path fill="#0A195D" d="M776.398 703.584C782.087 702.96 787.235 703.373 792.332 706.247C799.797 710.456 804.767 718.445 806.978 726.553C809.284 735.014 808.545 744.387 804.023 752.013C800.311 758.274 794.673 762.655 787.593 764.411C781.664 765.285 776.274 764.902 771.021 761.753C763.71 757.371 758.488 748.146 756.46 740.03C754.43 731.904 755.29 722.354 759.748 715.163C763.642 708.882 769.383 705.368 776.398 703.584Z"/>
	<path fill="#EDF2F4" d="M769.868 725.797C773.459 728.476 775.828 733.469 778.065 737.293C782.438 735.121 785.566 731.141 789.806 728.799C791.134 728.066 792.349 727.612 793.861 728.058C794.838 729.146 794.86 729.527 795.166 730.98C794.76 732.493 793.361 733.356 792.211 734.325Q784.352 739.926 776.978 746.152C774.619 742.908 767.981 733.052 767.903 729.249C767.871 727.664 768.912 726.923 769.868 725.797Z"/>
	<path fill="#0A195D" d="M842.526 470.108C850.272 469.794 865.427 472.554 873.415 474.036C872.733 484.987 871.48 496.001 870.293 506.911C866.501 500.696 863.279 494.015 860.194 487.425L831.981 516.479C825.911 510.038 821.371 501.1 816.681 493.581C808.671 501.401 801.489 510.264 793.701 518.347C791.915 513.37 789.784 508.825 787.233 504.19C785.809 501.56 784.565 498.85 783.302 496.141Q777.659 501.894 771.812 507.44C769.311 505.087 767.113 502.744 765.039 500.007Q775.396 489.955 785.302 479.457C788.866 486.362 792.397 493.22 796.384 499.895C803.837 492.07 810.927 484.062 817.23 475.267C822.979 482.741 827.449 491.554 832.808 499.398C839.816 493.301 846.324 486.634 852.692 479.879C849.804 477.051 844.107 473.779 842.526 470.108Z"/>
	<path fill="#2B2D42" d="M764.196 513.668C767.2 513.908 863.408 548.644 866.767 551.021C867.536 552.523 867.245 552.724 866.82 554.299C864.969 554.625 863.622 554.182 861.88 553.607C853.4 550.806 845.066 547.315 836.685 544.213Q814.071 536.039 791.561 527.585C784.338 524.875 770.74 521.112 764.711 517.447C763.882 515.97 764.101 515.328 764.196 513.668Z"/>
	<path fill="#EDF2F4" d="M677.9 764.035C678.569 764.985 678.121 768.565 678.174 769.908C678.356 774.549 679.304 778.639 681.177 782.877C672.377 786.539 663.939 790.322 655.612 794.966C655.324 796.774 654.836 798.724 656.175 800.244C657.791 802.078 689.031 813.95 694.224 815.957C728.743 829.298 763.74 841.871 798.561 854.428C810.369 858.687 827.188 866.521 839.106 868.522C843.051 869.184 846.32 868.523 850.064 867.341C856.256 865.386 923.029 837.161 926.99 834.202C927.879 833.537 928.076 833.484 928.245 832.355C927.146 830.623 925.428 829.716 923.633 828.808C917.618 825.764 910.504 823.806 904.144 821.524Q884.569 814.591 865.143 807.254C866.366 802.936 866.985 798.322 867.824 793.909C901.594 807.137 936.722 817.058 970.283 830.798C953.343 839.736 934.71 846.33 917.071 853.781C897.005 862.258 877.295 871.561 857.208 879.963L760.845 922.896C746.344 929.308 729.444 938.962 713.997 942.073C709.286 943.022 704.317 942.779 699.633 941.792C684.596 938.624 668.405 931.491 653.655 926.556Q587.54 904.061 521.851 880.347Q505.136 874.407 488.494 868.264C480.073 865.173 471.725 861.83 463.009 859.656C473.942 854.397 485.384 849.951 496.529 845.147L547.052 823.128Q613.014 794.774 677.9 764.035Z"/>
	<path fill="#2B2D42" d="M635.105 800.463C639.503 801.029 645.192 804.295 649.374 805.938L680.33 817.899Q725.971 835.595 772.237 851.586C779.655 854.204 824.902 869.52 827.015 871.315C827.843 872.018 828.721 873.181 828.643 874.325C828.505 876.353 826.82 877.858 825.306 879.014C821.217 882.135 766.391 906.659 759.918 908.379C754.944 909.7 750.483 909.575 745.424 908.904C732.503 907.188 713.139 898.25 699.988 893.707C677.163 885.822 654.637 877.218 631.876 869.204C606.973 860.435 581.707 852.334 556.976 843.112C555.399 842.523 553.345 841.736 552.196 840.443C551.291 839.423 551.311 838.834 551.277 837.568C554.693 833.404 624.71 805.189 635.105 800.463Z"/>
	<path fill="#67439D" d="M634.166 805.635Q689.508 827.648 745.52 847.897C770.573 856.76 797.459 864.825 821.902 874.909C809.21 881.554 795.743 887.093 782.686 893.001C775.413 896.292 768.106 900.567 760.452 902.843C756.636 903.977 753.322 904.069 749.382 903.944C733.342 901.945 717.76 894.354 702.656 888.855L642.752 867.474L594.356 850.197C583.027 846.249 571.487 842.751 560.485 837.936C571.408 833.539 582.122 828.54 592.981 823.97C606.728 818.183 621.023 812.682 634.166 805.635Z"/>
	<path fill="#2B2D42" d="M613.939 869.014C618.396 869.727 648.946 880.806 651.965 883.309L651.898 884.289C647.912 888.951 621.768 898.896 614.122 902.204C612.203 903.01 610.18 903.507 608.177 904.065C604.27 903.074 581.601 895.37 579.709 893.692C578.888 892.015 578.193 890.186 578.77 888.307C579.544 885.784 609.435 871.529 613.939 869.014Z"/>
	<path fill="#67439D" d="M614.981 873.946C625.105 877.036 634.512 881.662 644.854 884.387C633.538 887.937 622.402 892.857 611.737 898.019C611.507 898.13 611.286 898.259 611.049 898.352C607.603 899.704 587.499 891.355 582.914 889.651C593.746 884.98 604.329 879.091 614.981 873.946Z"/>
	<path fill="#67439D" d="M775.675 386.616C775.738 386.613 775.801 386.611 775.864 386.607C776.817 386.548 777.772 386.507 778.723 386.637C785.292 387.534 795.699 392.734 801.984 395.328L844.653 413.059L878.78 426.66C885.464 429.339 892.421 431.876 898.81 435.213C902.105 436.934 905.097 439.614 907.126 442.734C912.731 451.355 909.429 462.063 907.437 471.253C906.341 476.308 905.34 481.377 904.162 486.415C904.293 480.911 904.731 475.665 902.542 470.423C900.78 466.201 896.848 463.058 892.956 460.827C886.883 457.345 879.874 455.033 873.375 452.421Q857.173 445.843 840.878 439.5C820.963 431.789 801.371 423.277 781.643 415.119C777.91 413.575 774.733 412.811 770.869 414.564C766.916 416.358 764.737 419.837 763.229 423.744C760.644 430.443 759.856 437.824 758.374 444.82C756.017 455.95 753.413 467.016 751.134 478.17L733.527 561.619L706.386 695.506L697.532 738.8C696.642 743.348 695.46 747.875 694.761 752.454C694.24 755.858 694.096 759.596 695.64 762.766C697.289 766.153 699.343 766.798 702.636 767.99C714.436 772.269 725.849 777.783 737.373 782.765C755.119 790.436 772.918 797.92 790.553 805.85C799.575 809.907 808.722 813.566 817.808 817.457C821.355 818.975 825 821.167 828.637 822.337C830.109 822.811 831.522 822.972 833.062 822.957L834.833 822.947L835.626 822.938C835.948 823.646 835.945 823.969 835.837 824.754C835.368 828.175 834.766 833.238 831.864 835.369C825.976 836.448 814.1 829.477 808.48 826.875C785.637 816.301 762.598 805.807 739.225 796.448Q726.597 791.497 713.89 786.754C709.229 785.037 704.287 783.615 699.794 781.503C695.581 779.524 692.674 777.779 691.141 773.16C689.568 768.419 690.274 763.294 691 758.462C694.749 733.521 700.284 708.725 705.081 683.962L740.907 507.989L758.371 425.952C760.333 416.849 761.594 401.464 766.011 393.576C768.159 389.741 771.52 387.708 775.675 386.616Z"/>
	<path fill="#67439D" d="M775.96 373.09C778.88 372.783 781.04 373.077 783.838 373.9C791.737 376.224 799.306 379.585 806.928 382.659L847.483 399.203C863.089 405.528 878.681 411.759 894.199 418.316C901.699 421.484 909.721 424.355 916.772 428.432C921.143 430.959 924.807 434.045 927.166 438.608C930.286 444.641 930.081 450.207 929.257 456.713C928.009 466.574 925.65 476.333 923.732 486.082L914.138 535.223Q899.022 614.958 882.541 694.422L861.909 797.22Q859.692 807.841 857.796 818.524C856.778 824.281 856.113 830.341 854.211 835.88C852.7 840.283 849.396 845.539 844.979 847.514C842.618 848.569 838.337 850.373 835.846 849.473L835.727 848.755L837.6 847.065C839.728 844.788 841.702 842.367 843.022 839.522C845.942 833.226 848.633 814.783 850.209 807.078L864.891 736.1L900.478 560.289L914.418 489.764C916.249 480.255 918.811 470.779 920.224 461.205C921.145 454.967 921.333 447.978 919.102 441.981C917.704 438.224 914.917 434.382 911.641 432.041C903.735 426.392 888.462 421.347 879.089 417.619C863.219 411.307 847.359 405.074 831.73 398.178C822.455 394.086 812.946 390.679 803.552 386.885C796.536 384.051 785.348 377.415 777.883 377.095C773.551 376.91 768.447 379.625 764.447 381.177C767.855 377.446 770.87 374.34 775.96 373.09Z"/>
	<path fill="#67439D" d="M681.903 787.985C682.666 788.1 682.332 787.991 683.096 788.386C699.426 796.84 717.348 801.901 734.19 809.31C757.875 819.729 781.247 830.869 804.909 841.366C814.517 845.628 824.845 851.335 835.035 853.84C840.208 855.112 844.412 853.691 848.857 850.896C861.34 843.045 860.923 825.268 863.793 812.363Q891.59 822.012 919.1 832.451L911.714 835.465C899.972 840.883 887.847 845.514 876.014 850.751C866.948 854.763 857.935 859.788 848.557 862.95C844.062 864.466 840.104 864.177 835.592 862.976C827.304 860.77 819.332 856.684 811.271 853.712L751.117 831.598L690.722 809.29C681.143 805.644 671.138 802.315 661.983 797.713C668.451 794.121 675.338 791.391 681.903 787.985Z"/>
	<path fill="#67439D" d="M977.965 835.468C978.428 835.886 978.591 836.323 978.561 836.983C978.497 838.39 977.623 840.127 976.719 841.178C975.308 842.819 972.006 844.109 970.032 844.991L833.019 905.733L781.68 928.78C762.919 937.335 744.139 946.303 725.018 954.029C720.336 955.921 715.125 956.969 710.087 957.207C704.191 957.485 698.642 956.321 693.029 954.603C684.207 951.902 675.653 948.179 666.933 945.139L588.102 917.047L502.001 886.322C487.029 881.034 471.722 876.195 456.912 870.503C454.988 869.764 453.54 868.85 452.022 867.464C451.07 866.175 450.229 864.569 450.379 862.939C451.257 862.51 458.312 866.155 460.016 866.829C475.489 872.953 491.358 878.175 507.042 883.735L640.658 931.545L673.937 943.355C681.948 946.232 690.18 949.851 698.57 951.335C707.789 952.965 716.682 951.723 725.499 948.773C743.344 942.802 760.578 933.639 777.755 925.99Q832.882 901.643 887.658 876.515L944.761 851.023C955.687 846.201 968.181 842.361 977.965 835.468Z"/>
	<path fill="#2B2D42" d="M702.659 205.834L702.316 204.982C699.644 198.44 695.569 192.655 692.634 186.261C684.999 169.63 683.996 148.013 690.899 130.976C696.495 117.165 707.609 107.14 721.315 101.484Q722.64 100.938 723.991 100.458Q725.342 99.979 726.715 99.5675Q728.088 99.156 729.48 98.8135Q730.872 98.471 732.279 98.1983Q733.686 97.9255 735.105 97.7233Q736.524 97.5211 737.952 97.3899Q739.379 97.2586 740.811 97.1987Q742.244 97.1388 743.677 97.1504Q745.11 97.1619 746.541 97.2449Q747.972 97.3279 749.397 97.4821Q750.823 97.6364 752.238 97.8615Q753.654 98.0865 755.056 98.3819Q756.459 98.6773 757.845 99.0422Q759.231 99.4071 760.598 99.8407Q761.964 100.274 763.307 100.775Q764.65 101.277 765.966 101.844C779.167 107.47 788.74 119.112 793.928 132.286C799.759 147.09 798.441 165.156 792.015 179.554C785.4 194.375 774.096 205.655 758.849 211.394C756.701 212.202 754.483 212.812 752.272 213.417C748.814 218.926 746.629 225.138 742.766 230.367C742.603 230.587 742.446 230.811 742.286 231.033C745.884 232.605 747.364 233.937 749.582 237.179C749.359 239.659 749.106 242.055 748.572 244.495C744.664 249.213 738.322 251.528 732.532 253.197C731.376 255.603 729.746 260.418 727.113 261.434L726.309 261.269C725.966 264.388 724.623 266.931 722.642 269.347C719.557 273.108 714.955 276.143 710.02 276.567C706.816 276.843 702.35 275.85 700.016 273.473C698.354 271.781 698.503 269.761 698.348 267.529C698.146 264.639 696.558 262.633 695.547 260.014C695.029 258.671 695.227 257.729 695.754 256.412C696.934 255.079 697.858 254.786 699.55 254.307C697.72 253.348 695.803 252.361 695.088 250.27C694.492 248.528 694.918 246.839 695.573 245.204C691.247 241.182 687.196 237.229 687.007 230.905C686.906 227.544 687.846 224.07 690.339 221.696C693.102 219.066 695.786 218.621 699.442 218.495C700.644 214.303 701.914 210.137 702.659 205.834Z"/>
	<path fill="#EDF2F4" d="M739.783 101.678C750.348 100.361 762.433 103.917 770.996 110.093Q772.034 110.848 773.034 111.652Q774.034 112.457 774.993 113.31Q775.952 114.162 776.869 115.061Q777.785 115.959 778.656 116.902Q779.528 117.844 780.352 118.828Q781.176 119.812 781.951 120.835Q782.726 121.858 783.45 122.917Q784.174 123.977 784.845 125.071Q785.517 126.165 786.134 127.29Q786.75 128.416 787.312 129.57Q787.873 130.724 788.377 131.905Q788.88 133.085 789.326 134.289Q789.771 135.492 790.158 136.716Q790.544 137.94 790.869 139.182Q791.195 140.423 791.46 141.679Q791.724 142.935 791.927 144.202C795.265 166.177 786.064 190.939 766.447 202.468C760.811 205.78 753.2 207.303 748.398 211.737C744.259 215.557 742.347 222.632 738.888 227.333C738.177 228.378 737.434 229.316 736.147 229.557C729.472 230.805 710.594 223.835 705.068 219.758C705.474 215.005 707.806 210.174 707.409 205.403C706.843 198.616 699.105 189.157 696.103 182.701C693.743 177.625 692.385 171.861 691.588 166.337C689.388 151.084 691.836 134.986 701.35 122.542C710.723 110.284 724.731 103.748 739.783 101.678Z"/>
	<path fill="#0A195D" d="M725.205 132.105L726.7 132.061C729.599 132.002 731.305 132.34 733.373 134.479C739.053 140.352 735.771 154.306 735.421 161.908C744.886 156.63 742.84 146.539 751.111 141.883C753.428 140.579 756.719 139.624 759.307 140.655C761.079 141.361 762.218 142.989 762.819 144.736C764.181 148.697 763.147 153.359 761.256 156.972C757.802 163.573 751.933 168.327 744.889 170.504C742.381 179.638 735.116 212.172 731.506 218.239C730.214 218.874 729.953 219.063 728.54 218.941L727.92 218.15C727.021 213.421 731.696 200.085 733.018 194.75C735.615 184.49 737.885 173.956 741.493 164.004C739.097 165.281 736.932 166.957 734.133 166.121C733.072 165.804 733.105 165.707 731.954 165.981C728.362 173.703 723.896 195.298 721.98 204.425C721.21 208.096 721.003 212.157 719.749 215.671C719.201 217.208 718.539 218.219 717.023 218.942C715.864 218.682 715.557 218.668 714.9 217.567C714.249 216.476 714.225 214.601 714.362 213.382C714.813 209.365 716.391 204.87 717.337 200.881C720.196 188.834 723.366 176.848 726.308 164.818C724.206 162.622 722.476 160.428 721.184 157.653C718.617 152.138 716.927 143.931 719.263 138.106C720.423 135.214 722.408 133.378 725.205 132.105Z"/>
	<path fill="#EDF2F4" d="M726.023 137.389C726.745 137.4 727.577 137.368 728.282 137.521C729.527 137.792 730.194 138.486 730.811 139.568C733.328 143.981 731.178 157.001 729.565 161.64C726.199 157.408 723.593 151.506 723.282 146.069C723.077 142.479 723.651 140.086 726.023 137.389Z"/>
	<path fill="#EDF2F4" d="M756.02 144.789C756.646 144.966 757.115 145.298 757.669 145.632C758.283 146.985 758.501 147.69 758.158 149.175C756.652 155.699 751.277 161.839 745.862 165.441L745.494 165.349C744.747 164.595 744.214 164.237 744.25 163.068C744.38 158.867 752.521 147.404 756.02 144.789Z"/>
	<path fill="#EDF2F4" d="M693.609 225.306C695.781 227.28 695.767 230.356 699.413 233.108C708.91 240.277 732.515 244.4 734.958 246.475C735.171 246.657 735.264 246.945 735.418 247.179L733.646 247.904C722.028 250.672 709.818 246.568 699.566 241.092C696.184 239.285 692.755 236.853 691.736 232.943C691.02 230.2 692.296 227.635 693.609 225.306Z"/>
	<path fill="#EDF2F4" d="M698.24 222.673C704.143 223.776 710.459 228.337 716.245 230.491C723.132 233.054 730.503 233.698 737.668 235.085C740.223 235.58 742.613 235.949 744.164 238.22C744.556 239.849 744.359 240.903 743.988 242.522C743.76 242.597 743.535 242.681 743.305 242.747C738.731 244.057 708.35 233.35 703.269 230.424C699.889 228.478 699.137 226.347 698.24 222.673Z"/>
	<path fill="#EDF2F4" d="M698.623 246.274C708.207 249.727 715.894 253.865 726.488 253.508C727.559 253.472 728.402 253.503 729.458 253.767L728.62 254.393C728.242 254.584 727.857 254.762 727.467 254.928C721.066 257.65 712.292 255.935 706.079 253.23C702.341 251.603 700.147 250.067 698.623 246.274Z"/>
	<path fill="#EDF2F4" d="M700.811 255.603C708.191 259.343 714.736 261.335 723.057 260.927C722.625 261.65 722.171 262.518 721.602 263.139C720.633 264.197 719.391 264.637 717.999 264.792C712.829 265.366 706.215 263.596 702.277 260.132C700.676 258.723 700.903 257.534 700.811 255.603Z"/>
	<path fill="#EDF2F4" d="M702.364 265.326C704.739 266.463 707.039 267.442 709.593 268.107C711.829 268.69 714.307 268.713 716.35 269.817L716.12 270.66C713.028 271.557 708.337 273.088 705.348 271.269C703.181 269.951 702.915 267.586 702.364 265.326Z"/>
	<path fill="#67439D" d="M616.218 356.676C617.459 356.537 618.673 356.495 619.921 356.503C632.419 356.584 644.261 361.353 653.01 370.314Q653.884 371.193 654.713 372.115Q655.542 373.037 656.323 373.999Q657.104 374.962 657.835 375.963Q658.566 376.964 659.246 378Q659.926 379.037 660.553 380.107Q661.179 381.176 661.751 382.276Q662.322 383.376 662.838 384.503Q663.353 385.631 663.811 386.783Q664.268 387.935 664.667 389.109Q665.066 390.282 665.405 391.475Q665.744 392.667 666.022 393.875Q666.3 395.083 666.517 396.304Q666.734 397.524 666.889 398.754Q667.043 399.984 667.136 401.22Q667.228 402.456 667.258 403.696Q667.288 404.935 667.255 406.174C667.006 419.044 661.067 432.511 651.744 441.364C639.248 453.23 626.694 454.341 610.321 453.816C608.395 454.915 606.561 456.22 604.71 457.44C597.8 462.663 589.701 466.855 582.409 471.613C584.571 462.256 586.932 452.984 588.791 443.556C579.77 434.826 573.013 424.385 571.563 411.661Q571.412 410.44 571.321 409.213Q571.229 407.986 571.199 406.756Q571.169 405.526 571.199 404.296Q571.229 403.066 571.32 401.839Q571.411 400.612 571.562 399.391Q571.713 398.17 571.925 396.958Q572.136 395.746 572.407 394.546Q572.678 393.346 573.007 392.16Q573.337 390.975 573.725 389.807Q574.112 388.64 574.557 387.493Q575.002 386.346 575.503 385.222Q576.003 384.098 576.559 383Q577.115 381.902 577.724 380.833Q578.333 379.764 578.994 378.727Q579.655 377.689 580.367 376.685Q581.078 375.681 581.838 374.714C590.298 364.08 602.859 358.14 616.218 356.676Z"/>
	<path fill="#EDF2F4" d="M606.899 399.586C608.519 399.557 610.356 399.409 611.94 399.757C614.257 400.267 616.629 402.428 617.702 404.486C618.638 406.279 618.865 408.467 618.248 410.4C617.245 413.542 614.939 415.137 612.123 416.541C610.479 416.819 608.715 416.884 607.098 416.405C604.858 415.741 602.994 414.079 601.892 412.042Q601.669 411.625 601.491 411.188Q601.313 410.75 601.182 410.295Q601.051 409.841 600.969 409.376Q600.887 408.91 600.854 408.439Q600.821 407.967 600.838 407.495Q600.855 407.023 600.922 406.555Q600.989 406.087 601.105 405.629Q601.221 405.17 601.384 404.727C602.43 401.933 604.327 400.82 606.899 399.586Z"/>
	<path fill="#EDF2F4" d="M625.983 399.579C627.482 399.429 629.168 399.209 630.659 399.462C632.823 399.831 635.013 401.358 636.189 403.193C637.422 405.117 637.712 407.379 637.155 409.579C636.281 413.036 634.079 414.621 631.105 416.257C629.832 416.463 628.404 416.603 627.13 416.355C624.99 415.939 622.789 414.645 621.563 412.821C620.227 410.835 619.896 408.478 620.356 406.154C621.014 402.839 623.276 401.273 625.983 399.579Z"/>
	<path fill="#67439D" d="M253.462 149.475L253.992 150.056C251.857 161.737 248.516 173.027 246.875 184.877C244.07 205.12 243.972 225.593 242.628 245.962C228.453 243.522 213.923 248.87 200.534 252.736C204.181 237.84 207.195 223.145 213.34 209.019C216.476 201.81 222.432 194.115 224.72 186.837C225.153 185.459 225.263 185.296 224.583 184.049L225.154 184.769L225.016 184.26L223.63 184.466C215.401 190.806 208.623 211.368 204.027 221.094C203.151 216.378 200.868 211.831 198.602 207.629C197.559 205.696 195.983 202.678 193.752 202.03C193.111 202.644 193.209 202.325 193.203 203.227C193.176 207.153 200.051 221.035 202.919 223.892C201.61 232.824 198.88 242.215 196.297 250.869C191.446 245.027 184.001 241.55 177.462 237.958C176.644 238.632 176.633 238.687 176.369 239.717C178.52 244.119 189.457 248.448 193.528 252.239C194.604 253.242 195.557 254.394 195.594 255.929C195.648 258.111 194.678 260.836 194.363 263.06Q193.26 271.279 192.64 279.549C191.046 300.148 190.466 320.452 191.231 341.109Q185.403 332.565 180.397 323.515Q175.391 314.466 171.249 304.989C168.778 299.2 166.501 293.078 165.788 286.785C163.927 270.345 171.522 240.247 177.672 225.002C192.889 187.285 216.36 165.294 253.462 149.475Z"/>
	<path fill="#67439D" d="M90.0637 223.206C93.9799 222.857 98.0597 222.996 101.993 223.053C118.662 223.295 141.98 227.27 154.058 239.978C164.34 250.798 161.208 270.013 160.906 283.758C152.532 269.89 146.254 261.474 132.997 251.687C128.4 248.293 115.797 240.136 110.219 240.981L109.87 241.977C110.276 242.859 110.544 243.167 111.348 243.706C114.442 245.777 118.194 247.162 121.47 248.962C126.232 251.577 131.011 255.043 135.309 258.372C142.237 263.738 148.38 270.186 152.997 277.646Q148.02 277.342 143.049 277.742C138.693 278.13 125.375 279.235 122.459 282.698C122.651 283.832 122.811 283.698 123.651 284.393C127.067 284.394 130.944 283.255 134.343 282.733C139.533 281.938 144.568 281.625 149.808 281.537C150.986 281.518 153.073 281.227 154.17 281.541C159.678 283.116 168.945 311.347 172.058 317.632C175.756 325.096 179.849 332.4 184.88 339.049C161.074 330.109 133.386 319.179 119.532 296.526C114.028 287.526 110.462 277.329 106.609 267.544C99.7063 250.013 93.7597 238.56 82.1769 223.674C84.8049 223.564 87.4376 223.363 90.0637 223.206Z"/>
	<path fill="#67439D" d="M241.63 249.278L242.322 249.496C243.231 254.683 241.923 262.743 241.371 268.016C238.816 292.39 228.773 312.894 211.064 329.8C206.457 334.197 201.239 338.125 196.286 342.131L195.748 341.569C194.745 337.763 195.222 332.803 195.145 328.789C194.826 312.259 195.233 295.492 196.878 279.027C197.643 271.366 198.929 263.751 199.832 256.102C206.836 255.647 213.512 252.868 220.293 251.235C227.266 249.555 234.492 249.358 241.63 249.278Z"/>
	<path fill="#2B2D42" d="M544.985 117.512C546.66 117.489 548.566 117.385 550.158 117.967C552.448 118.805 566.055 133.534 568.27 136.539C569.226 137.835 569.897 139.274 570.519 140.752C568.96 143.475 567.208 145.723 564.859 147.804C563.463 147.971 562.065 148.139 560.664 147.933Q560.008 147.836 559.371 147.653Q558.734 147.47 558.126 147.204Q557.519 146.938 556.952 146.594Q556.386 146.25 555.87 145.833C553.202 143.644 551.561 140.294 549.227 137.774C547.222 135.609 544.886 133.774 542.91 131.575C542.335 130.936 541.792 130.278 541.309 129.566C540.019 127.663 539.265 125.642 539.758 123.343C540.34 120.63 542.782 118.867 544.985 117.512Z"/>
	<path fill="#EDF2F4" d="M557.722 132.281C558.871 133 559.935 133.786 560.949 134.687C562.931 136.448 565.067 138.13 565.233 140.963C564.448 142.354 563.973 142.374 562.555 143.023C558.28 141.986 556.134 139.596 553.588 136.194L557.722 132.281Z"/>
	<path fill="#EDF2F4" d="M546.197 121.786C548.548 122.337 550.631 123.212 552.394 124.915C553.596 126.076 553.828 127.05 553.811 128.667C553.276 130.33 552.144 130.932 550.783 131.878L549.767 132.02C548.943 131.613 548.216 131.232 547.514 130.63C546.092 129.409 544.185 126.96 544.354 124.928C544.49 123.281 545.137 122.867 546.197 121.786Z"/>
	<path fill="#2B2D42" d="M553.139 153.538C554.963 153.479 557.262 153.249 559.008 153.772C561.248 154.442 563.274 156.163 564.271 158.274Q564.454 158.67 564.597 159.083Q564.74 159.495 564.842 159.92Q564.944 160.345 565.004 160.777Q565.064 161.21 565.081 161.646Q565.098 162.083 565.072 162.518Q565.046 162.954 564.977 163.386Q564.908 163.817 564.797 164.239Q564.687 164.662 564.535 165.071C563.693 167.366 562.044 169.119 559.801 170.092C556.398 171.568 553.959 170.594 550.695 169.419C550.59 171.381 550.605 173.579 550.066 175.472C549.513 177.41 548.45 178.166 546.759 179.129C546.454 179.219 546.15 179.313 545.844 179.4C543.63 180.025 541.143 180.48 539.093 179.204C537.128 177.982 535.195 176.135 534.667 173.799C534.194 171.701 534.612 168.266 535.917 166.516C537.331 164.619 539.083 164.164 541.306 163.774C542.586 163.549 543.551 163.362 544.716 162.797C546.177 161.143 546.16 159.721 546.974 157.786C548.024 155.293 550.801 154.391 553.139 153.538Z"/>
	<path fill="#EDF2F4" d="M553.586 157.395C555.664 157.835 558.177 158.529 559.518 160.31C560.229 161.253 560.553 162.288 560.208 163.456C559.769 164.94 558.346 165.758 557.136 166.547Q556.408 166.536 555.681 166.505C553.773 166.418 551.774 166.137 550.612 164.394C550.106 163.636 550 162.938 550.105 162.071C550.381 159.793 551.886 158.692 553.586 157.395Z"/>
	<path fill="#EDF2F4" d="M540.518 167.934C541.796 167.851 542.986 167.837 544.192 168.356C545.292 168.829 546.169 170.035 546.378 171.191C546.66 172.748 545.908 174.167 545.2 175.483C543.606 175.587 541.993 175.761 540.602 174.796C539.63 174.122 539.032 173.264 538.926 172.071C538.782 170.459 539.671 169.204 540.518 167.934Z"/>
	<path fill="#2B2D42" d="M827.79 97.8671L829.207 98.0417C833.045 100.884 834.547 107.784 835.915 112.162C828.806 116.48 819.422 118.066 811.53 120.719C810.643 120.955 809.753 121.201 808.855 121.389C807.105 121.755 806.064 121.735 804.502 120.74C804.172 120.054 803.863 119.789 804.046 118.996C805.444 112.955 822.317 101.56 827.79 97.8671Z"/>
	<path fill="#2B2D42" d="M718.412 50.5908C718.62 50.5833 718.83 50.5393 719.036 50.5682C719.956 50.6976 720.83 50.9723 721.154 51.9264C722.473 55.8219 724.226 77.3952 722.845 80.8943C722.369 82.0997 721.946 82.3636 720.771 82.7773C717.897 81.9002 716.67 79.136 715.25 76.7281C711.266 69.8279 706.593 62.5443 703.788 55.0898C708.528 53.2542 713.529 51.997 718.412 50.5908Z"/>
	<path fill="#2B2D42" d="M773.309 54.7716C776.424 54.9164 780.81 55.8838 783.59 57.3191C784.96 58.0259 786.299 59.1312 786.663 60.6989C787.753 65.3995 778.738 76.8051 776.218 80.7473C774.736 82.7332 773.063 84.517 770.785 85.5513C769.417 85.5467 769.409 85.6213 768.388 84.7332C766.013 78.5914 771.252 61.5685 773.309 54.7716Z"/>
	<path fill="#2B2D42" d="M813.28 159.479C818.33 159.256 824.261 160.59 829.041 162.152C830.72 162.701 832.692 163.297 833.539 164.973C833.404 166.721 832.503 168.145 831.713 169.672C826.486 169.444 817.349 169.187 812.861 166.196C811.488 165.28 811.314 164.502 811.046 163C811.51 161.322 812.006 160.652 813.28 159.479Z"/>
	<path fill="#2B2D42" d="M668.518 92.2817C672.303 92.3973 680.59 97.6745 683.202 100.561C684.019 101.464 684.723 102.704 684.478 103.969C684.152 105.647 683.207 106.128 681.985 107.104C678.11 106.372 673.492 103.533 670.26 101.232C668.188 99.7572 666.449 98.1436 665.984 95.5602C666.512 93.9413 667.296 93.4385 668.518 92.2817Z"/>
	<path fill="#2B2D42" d="M573.948 146.776C576.103 146.992 577.551 147.162 578.941 149.016Q579.128 149.264 579.287 149.53Q579.447 149.796 579.577 150.077Q579.708 150.358 579.808 150.652Q579.908 150.945 579.976 151.248Q580.045 151.55 580.081 151.858Q580.117 152.166 580.121 152.476Q580.125 152.786 580.096 153.095Q580.067 153.404 580.005 153.708C579.641 155.575 578.437 157.304 576.832 158.316C574.676 159.676 572.706 159.516 570.302 159.05C569.497 158.685 568.488 158.277 567.828 157.682C566.731 156.692 566.657 155.827 566.601 154.44C568.279 151.618 572.081 155.5 574.963 154.352C576.131 151.724 574.883 149.261 573.948 146.776Z"/>
	<path fill="#2B2D42" d="M464.295 145.652C464.5 145.609 464.704 145.559 464.911 145.525C466.744 145.221 467.357 145.52 468.82 146.529C469.307 147.842 469.19 147.872 468.716 149.212C467.567 150.431 465.947 150.414 464.373 150.641C463.215 150.907 461.899 151.284 460.706 151.347C459.304 151.42 458.576 150.727 457.593 149.868C457.529 148.633 457.702 148.295 458.546 147.348C459.816 145.922 462.511 145.888 464.295 145.652Z"/>
	<path fill="#2B2D42" d="M299.898 248.736C300.476 248.984 301.384 249.291 301.912 249.673C302.521 250.113 303.049 250.523 303.127 251.294C303.414 254.142 299.993 257.799 298.419 260.014L294.135 257.675C296.013 254.67 297.974 251.711 299.898 248.736Z"/>
	<path fill="#2B2D42" d="M345.175 198.908L348.825 202.77C346.541 205.024 343.96 206.927 341.426 208.886C339.764 207.784 338.857 207.214 337.98 205.361C340.222 203.043 342.703 200.972 345.175 198.908Z"/>
	<path fill="#2B2D42" d="M313.719 238.087C312.302 240.097 310.9 242.324 309.209 244.109C308.175 245.201 307.246 245.708 305.756 245.724L305.007 244.708C304.817 243.01 304.953 241.776 305.652 240.194C306.408 238.484 308.258 236.334 310.11 235.844C310.907 235.633 312.184 236.512 312.923 236.861L313.719 238.087Z"/>
	<path fill="#2B2D42" d="M371.582 180.425C373.172 180.873 374.106 182.415 375.12 183.637C372.43 185.788 369.841 187.387 366.707 188.788L366.163 188.796C365.098 188.129 364.494 187.652 363.786 186.608L364.109 185.382C366.129 183.182 369.001 181.879 371.582 180.425Z"/>
	<path fill="#2B2D42" d="M433.835 153.053C434.633 152.986 434.175 152.934 435.149 153.49C435.537 154.883 436.022 155.555 435.407 156.898C432.801 158.538 429.588 159.277 426.668 160.209L425.68 160.134L425.043 159.305C424.984 158.297 424.706 157.404 425.292 156.532C427.054 153.91 430.961 153.688 433.835 153.053Z"/>
	<path fill="#2B2D42" d="M417.317 158.499C417.924 158.475 417.525 158.44 418.432 158.944C419.004 160.415 419.14 160.926 418.719 162.524C417.171 164.789 412.88 165.376 410.318 166.088C409.928 166.154 409.476 165.685 409.154 165.466C408.697 163.941 408.58 163.765 409.06 162.269C411.217 160.201 414.53 159.502 417.317 158.499Z"/>
	<path fill="#2B2D42" d="M333.946 209.647L336.612 213.258C334.06 215.63 331.464 217.789 328.679 219.881L325.309 216.831C328.106 214.336 330.853 211.778 333.946 209.647Z"/>
	<path fill="#2B2D42" d="M401.929 164.529C401.974 164.574 402.027 164.612 402.065 164.663C402.837 165.696 403.456 166.681 403.391 168.004C401.737 170.971 397.603 171.937 394.614 173.109L393.706 172.851C393.489 171.622 393.23 170.483 393.411 169.23C395.396 166.845 399.125 165.754 401.929 164.529Z"/>
	<path fill="#2B2D42" d="M386.566 172.46C387.286 172.563 386.851 172.443 387.778 173.058C388.246 174.592 388.498 175.062 388.128 176.66C385.658 178.583 382.58 179.694 379.73 180.942Q378.603 179.109 377.417 177.314C380.305 175.203 383.278 173.802 386.566 172.46Z"/>
	<path fill="#2B2D42" d="M321.34 221.048C322.367 222.388 323.369 223.735 324.527 224.967L317.786 232.604L314.703 230.683C314.748 227.834 319.441 223.31 321.34 221.048Z"/>
	<path fill="#2B2D42" d="M496.858 141.696C498.775 141.505 499.984 141.338 501.66 142.43C502.166 143.679 502.093 143.608 501.591 144.874C499.972 146.176 498.986 146.123 496.963 146.443C495.513 146.561 493.374 146.945 492.038 146.28C490.945 145.736 490.73 145.372 490.39 144.304L491.15 143.025C492.827 141.723 494.817 141.842 496.858 141.696Z"/>
	<path fill="#2B2D42" d="M450.834 148.594C451.85 148.797 451.996 148.971 452.746 149.633C452.648 150.29 452.606 151.263 452.246 151.834C450.77 154.169 446.064 154.505 443.625 154.868C443.155 154.897 442.622 154.794 442.151 154.744C441.44 153.714 441.225 153.237 441.201 151.979C442.836 149.523 448.015 149.171 450.834 148.594Z"/>
	<path fill="#2B2D42" d="M602.592 150.349C605.941 150.717 609.677 150.609 612.579 152.44C613.383 154.057 612.963 154.664 612.59 156.392C609.386 156.365 605.684 156.47 602.961 154.64C602.187 152.994 602.446 152.137 602.592 150.349Z"/>
	<path fill="#2B2D42" d="M524.763 141.072C528.115 141.06 532.273 140.124 535.217 141.973C535.976 143.518 535.646 143.998 535.318 145.648C535.083 145.73 534.857 145.843 534.613 145.895C532.32 146.384 527.784 146.581 525.832 145.058C524.591 144.089 524.875 142.51 524.763 141.072Z"/>
	<path fill="#2B2D42" d="M358.871 188.712L361.251 193.061C358.791 195.295 356.31 197.265 353.484 199.026L351.438 194.405C353.862 192.409 356.295 190.508 358.871 188.712Z"/>
	<path fill="#2B2D42" d="M619.833 153.314C622.833 154.174 627.116 153.899 629.413 156.127C629.707 157.815 629.203 158.319 628.469 159.832C628.191 159.898 627.921 160.01 627.636 160.031C625.414 160.196 621.074 159.213 619.826 157.243C618.925 155.822 619.488 154.818 619.833 153.314Z"/>
	<path fill="#2B2D42" d="M480.734 143.184C481.479 143.072 482.723 142.917 483.441 143.091C484.698 143.396 484.871 143.862 485.43 144.892L484.963 146.378C483.447 147.744 482.278 147.71 480.303 148.101C479.484 148.221 478.597 148.394 477.77 148.387C476.361 148.375 475.775 148.015 474.749 147.105C474.527 145.922 474.499 145.624 475.328 144.607C476.395 143.297 479.122 143.342 480.734 143.184Z"/>
	<path fill="#2B2D42" d="M508.293 141.237C511.355 141.115 515.926 139.997 518.5 141.889C518.909 143.46 518.599 144.08 518.186 145.623C514.944 145.66 509.911 146.256 507.41 143.918C507.539 142.528 507.409 142.319 508.293 141.237Z"/>
	<path fill="#2B2D42" d="M833.285 264.384C833.444 264.532 833.614 264.669 833.762 264.827C835.838 267.042 837.598 269.817 837.689 272.875C836.878 274.358 836.147 274.546 834.695 275.356C834.306 275.076 834.226 275.047 833.872 274.621C832.327 272.759 830.236 268.912 830.801 266.462C830.992 265.634 832.585 264.867 833.285 264.384Z"/>
	<path fill="#2B2D42" d="M586.086 148.36C589.205 148.471 593.671 147.973 596.12 150.159C596.534 151.732 596.208 152.366 595.789 153.911C592.685 153.644 589.057 153.832 586.39 152.099C585.584 150.51 585.832 150.078 586.086 148.36Z"/>
	<path fill="#2B2D42" d="M277.609 293.964C277.939 294.015 278.27 294.057 278.598 294.119C280.13 294.408 280.627 294.479 281.511 295.76C281.867 298.576 280.092 301.184 278.725 303.538C278.171 303.555 277.294 303.651 276.728 303.534C275.483 303.275 275.381 302.992 274.766 301.982C274.57 299.033 276.194 296.45 277.609 293.964Z"/>
	<path fill="#2B2D42" d="M650.54 161.312C653.185 162.064 656.157 162.46 657.879 164.768C658.031 166.557 657.514 167.087 656.68 168.641C655.004 168.51 653.469 168.269 651.863 167.749C650.205 167.211 649.721 166.605 648.927 165.091C648.874 163.4 649.592 162.603 650.54 161.312Z"/>
	<path fill="#2B2D42" d="M842.155 295.687C842.599 295.646 843.042 295.599 843.488 295.589C845.029 295.555 845.341 295.488 846.415 296.634C848.086 298.418 849.114 302.73 848.86 305.129C848.541 305.245 848.227 305.378 847.902 305.479C846.431 305.939 846.296 305.958 844.982 305.286C843.156 302.484 842.844 298.923 842.155 295.687Z"/>
	<path fill="#2B2D42" d="M541.294 141.617C544.777 142.438 548.365 141.472 551.622 143.239C552.451 144.547 552.417 144.852 552.447 146.421C551.83 146.66 551.714 146.732 550.965 146.858C548.729 147.235 544.609 147.284 542.754 145.685C541.498 144.603 541.568 143.149 541.294 141.617Z"/>
	<path fill="#2B2D42" d="M291.139 263.208L295.029 265.839C293.724 268.748 292.377 271.381 290.591 274.025C289.022 273.284 288.08 273.124 287.176 271.612C287.275 270.285 287.473 269.63 288.2 268.505C289.306 266.793 290.21 265.019 291.139 263.208Z"/>
	<path fill="#2B2D42" d="M854.099 326.514C854.502 326.897 854.561 326.907 854.877 327.473C855.938 329.371 856.846 334.133 855.811 336.039C855.447 336.71 853.899 336.95 853.178 337.182C852.228 336.905 852.718 337.141 851.781 336.338C851.067 333.46 850.444 331.162 850.98 328.185C851.919 326.797 852.517 326.929 854.099 326.514Z"/>
	<path fill="#2B2D42" d="M635.792 156.875C638.487 157.406 642.13 157.592 643.97 159.796C644.209 161.545 643.738 162.217 643.073 163.824C642.817 163.866 642.564 163.938 642.305 163.948C640.469 164.022 636.801 163.036 635.806 161.311C634.91 159.757 635.484 158.528 635.792 156.875Z"/>
	<path fill="#2B2D42" d="M847.016 311.402C848.325 311.304 849.305 311.159 850.524 311.773C851.35 312.865 852.228 314.024 852.557 315.377C852.953 317.007 853.438 319.308 852.642 320.82C851.752 321.087 850.895 321.219 849.976 321.343C849.494 321.09 849.48 321.122 849.036 320.661C847.232 318.786 847.005 313.891 847.016 311.402Z"/>
	<path fill="#2B2D42" d="M826.422 250.006C826.754 250.069 827.151 250.356 827.45 250.521C828.975 252.911 830.563 255.005 830.876 257.893C830.207 259.503 829.395 259.555 827.871 260.319L827.366 260.068C826.514 258.359 822.938 252.853 823.181 251.441L826.422 250.006Z"/>
	<path fill="#2B2D42" d="M283.711 278.243C285.344 278.839 286.344 279.022 287.165 280.582C287.315 283.32 285.644 286.071 284.546 288.532C283.816 288.39 282.872 288.292 282.197 287.993C281.1 287.507 281.061 287.087 280.675 286.046C280.803 283.318 282.521 280.663 283.711 278.243Z"/>
	<path fill="#2B2D42" d="M839.846 279.785L840.955 280.173C842.472 282.359 844.093 285.117 843.693 287.914C843.481 289.395 842.321 289.87 841.225 290.695C840.796 290.333 840.74 290.319 840.351 289.794C838.995 287.963 836.894 283.525 837.592 281.295C837.815 280.582 839.197 280.126 839.846 279.785Z"/>
	<path fill="#2B2D42" d="M852.638 342.725C854.212 342.522 855.522 342.163 856.948 343.055C858.521 345.279 858.219 348.785 858.363 351.457C856.64 351.58 855.594 351.906 854.041 351.098C852.495 348.837 852.822 345.418 852.638 342.725Z"/>
	<path fill="#2B2D42" d="M853.954 358.184C854.763 358.08 855.546 358.023 856.36 358.012C857.367 357.999 857.647 358.038 858.295 358.872C859.717 360.704 858.963 364.636 858.744 366.79C857.205 367.089 856.628 367.32 855.112 366.819C853.314 364.706 853.918 360.842 853.954 358.184Z"/>
	<path fill="#2B2D42" d="M810.906 222.348C813.02 224.048 814.869 226.953 815.174 229.651C814.54 231.163 813.75 231.351 812.374 232.189C810.797 230.147 808.385 227.954 808.023 225.348C808.605 223.614 809.434 223.376 810.906 222.348Z"/>
	<path fill="#2B2D42" d="M818.775 236.498L819.529 236.8C821.311 238.961 822.617 240.519 822.966 243.38C822.407 244.956 821.607 245.124 820.219 245.996C818.157 244.165 816.334 241.332 816 238.59C816.628 237.162 817.391 237.137 818.775 236.498Z"/>
	<path fill="#2B2D42" d="M273.346 308.6C274.356 308.792 275.014 308.99 275.89 309.534C276.243 310.372 276.393 311.003 276.416 311.929C276.475 314.314 275.034 317.199 273.501 318.913C272.669 318.604 272.088 318.269 271.343 317.801C271.021 317.212 270.785 316.67 270.73 315.99C270.542 313.673 271.835 310.334 273.346 308.6Z"/>
	<path fill="#E4DEDC" d="M345.175 198.908C346.976 197.005 349.153 195.651 351.438 194.405L353.484 199.026C352.134 199.363 349.577 201.574 348.825 202.77L345.175 198.908Z"/>
	<path fill="#E4DEDC" d="M333.946 209.647C335.287 208.511 337.514 207.103 337.98 205.361C338.857 207.214 339.764 207.784 341.426 208.886C340.196 210.753 338.617 212.232 336.612 213.258L333.946 209.647Z"/>
	<path fill="#E4DEDC" d="M314.703 230.683L317.786 232.604C316.944 234.958 315.883 236.751 313.719 238.087L312.923 236.861Q313.753 233.755 314.703 230.683Z"/>
</svg>
